# xmcd
#
# Track frame offsets:
#	150
#	17760
#	28955
#	42975
#	59802
#	70845
#	84422
#	95055
#	106940
#	119640
#	130997
#	152777
#	168867
#	180015
#	191802
#
# Disc length: 2791 seconds
#
# Revision: 0
# Processed by: cddbd v1.5PL3 Copyright (c) Steve Scherf et al.
# Submitted via: dBpowerAMP V4.0
#
DISCID=cf0ae50f
DTITLE=Various Artist - All American Line Dance Album
DYEAR=1900
DGENRE=Country
TTITLE0=I Wanna Watch You Dance All Night - Bill Todd
TTITLE1=When You Go Dancin Better Watch Your Step - Leroy Lovitt
TTITLE2=He Ain't Mr Right - Luce Amen
TTITLE3=Joanna - Becky Hobbs
TTITLE4=Turnin Up The Heat - Gary Floyd
TTITLE5=Toe Tappin Country Man  - John P.Swisshelm
TTITLE6=Rock The Boat - Good Ol' Greenwood Boys
TTITLE7=I Don't Live In Paradise - Good Ol' Greenwood Boys
TTITLE8=What's Your Name? - Good Ol' Greenwood Boys
TTITLE9=Goodbye Hit Me Right In The Heart - Good Ol' Greenwood Boys
TTITLE10=Double Bogey Blues - Hard Hat Dave
TTITLE11=You Should Have Thought About Her - Luce Amen
TTITLE12=Don't Call Me - Becky Hobbs
TTITLE13=You Ring My Bell - Ray Griff
TTITLE14=Black Coffee - Sean Kenney
EXTD=
EXTT0=
EXTT1=
EXTT2=
EXTT3=
EXTT4=
EXTT5=
EXTT6=
EXTT7=
EXTT8=
EXTT9=
EXTT10=
EXTT11=
EXTT12=
EXTT13=
EXTT14=
PLAYORDER=
